#!OML:ASF E:\Style4\Style4.ASF
:FULLY-SPECIFIED
:DEGREES
1198
root -0.19518 18.1446 -1.87511 -0.144091 0.578249 0.536722
lowerback 4.36896 2.59443 1.03805
upperback -1.02474 3.50118 -0.557712
thorax -3.40518 1.71541 -1.406
lowerneck 2.33815 -5.94751 -5.45617
upperneck -8.21762 -7.7385 6.98412
head -2.5459 -3.91688 3.45433
rclavicle 8.24568e-015 7.57867e-015
rhumerus -284.271 -26.706 -415.41
rradius 25.3308
rwrist 5.23854
rhand -22.6987 15.1942
rfingers 7.12502
rthumb 3.73405 -14.7529
lclavicle 8.24568e-015 7.57867e-015
lhumerus 69.9167 22.3078 50.6604
lradius 40.0387
lwrist 6.10525
lhand -16.8914 33.9403
lfingers 7.12502
lthumb 9.34012 63.7134
rfemur -3.93063 5.14821 18.464
rtibia 16.9668
rfoot -12.1718 -16.2318
rtoes -9.15307
lfemur -2.1197 -2.95547 -19.8406
ltibia 16.4839
lfoot -14.8999 13.0669
ltoes -11.8871
1199
root -0.199304 18.1441 -1.876 -0.123415 0.580157 0.535576
lowerback 4.36754 2.59279 1.04497
upperback -1.00778 3.49962 -0.547836
thorax -3.38711 1.71486 -1.39897
lowerneck 2.33214 -5.93876 -5.4708
upperneck -8.13605 -7.73282 6.94495
head -2.51867 -3.9125 3.43996
rclavicle -7.11667e-015 1.963e-015
rhumerus -284.499 -26.7972 -415.283
rradius 25.3737
rwrist 5.18076
rhand -22.7539 15.2447
rfingers 7.12502
rthumb 3.68072 -14.7032
lclavicle -7.11667e-015 1.963e-015
lhumerus 69.6009 22.4314 50.4825
lradius 40.0784
lwrist 6.26735
lhand -16.9521 34.0536
lfingers 7.12502
lthumb 9.28152 63.8293
rfemur -3.98819 5.1677 18.4776
rtibia 17.0241
rfoot -12.2173 -16.2203
rtoes -9.25305
lfemur -2.14011 -2.95323 -19.8241
ltibia 16.4512
lfoot -14.8663 13.0994
ltoes -12.2064
1200
root -0.20028 18.1448 -1.87675 -0.110021 0.584759 0.601442
lowerback 4.36942 2.60377 1.03444
upperback -0.97826 3.51248 -0.581037
thorax -3.35583 1.72162 -1.42719
lowerneck 2.34243 -5.94961 -5.46463
upperneck -8.08226 -7.74901 6.95175
head -2.50132 -3.92129 3.43964
rclavicle 2.58835e-014 -2.91344e-015
rhumerus -284.614 -26.9513 -415.343
rradius 25.35
rwrist 5.25439
rhand -22.6063 15.3604
rfingers 7.12502
rthumb 3.82331 -14.585
lclavicle 2.58835e-014 -2.91344e-015
lhumerus 69.3747 22.5103 50.365
lradius 40.0019
lwrist 6.21391
lhand -16.9193 33.9848
lfingers 7.12502
lthumb 9.31318 63.7591
rfemur -4.03599 5.12829 18.4002
rtibia 17.0738
rfoot -12.1897 -16.1906
rtoes -9.2969
lfemur -2.1392 -2.96387 -19.9009
ltibia 16.4273
lfoot -14.8211 13.1346
ltoes -12.3091
1201
root -0.201676 18.1445 -1.87756 -0.110432 0.592785 0.535065
lowerback 4.38417 2.60361 1.14701
upperback -0.945237 3.51863 -0.580159
thorax -3.32317 1.72297 -1.48903
lowerneck 2.34088 -5.94205 -5.45121
upperneck -8.05896 -7.73583 6.99775
head -2.49292 -3.91669 3.45178
rclavicle 4.83565e-015 -2.23633e-015
rhumerus -284.827 -27.0874 -415.246
rradius 25.3736
rwrist 5.15458
rhand -22.6685 15.3824
rfingers 7.12502
rthumb 3.76323 -14.5641
lclavicle 4.83565e-015 -2.23633e-015
lhumerus 69.0465 22.5969 50.0934
lradius 40.0124
lwrist 6.33418
lhand -17.0236 33.8972
lfingers 7.12502
lthumb 9.21253 63.6759
rfemur -4.04318 5.10012 18.4778
rtibia 17.0859
rfoot -12.1266 -16.1991
rtoes -9.46626
lfemur -2.14849 -2.96027 -19.8203
ltibia 16.4489
lfoot -14.8689 13.0937
ltoes -12.0584
1202
root -0.205194 18.1444 -1.88024 -0.111564 0.594228 0.535177
lowerback 4.4066 2.58226 1.1418
upperback -0.904883 3.49034 -0.565635
thorax -3.29621 1.70961 -1.46915
lowerneck 2.27961 -5.92552 -5.48088
upperneck -8.00465 -7.7135 7.01088
head -2.46337 -3.90444 3.45623
rclavicle 3.86661e-014 -9.67522e-016
rhumerus -285.039 -27.1526 -415.082
rradius 25.4323
rwrist 5.01589
rhand -22.9081 15.2615
rfingers 7.12502
rthumb 3.53186 -14.689
lclavicle 3.86661e-014 -9.67522e-016
lhumerus 68.6377 22.7453 49.7834
lradius 40.0859
lwrist 6.55875
lhand -17.1752 34.0664
lfingers 7.12502
lthumb 9.06633 63.8516
rfemur -4.03868 5.08001 18.4891
rtibia 17.0572
rfoot -12.1036 -16.1821
rtoes -9.53623
lfemur -2.20472 -2.94453 -19.8037
ltibia 16.5265
lfoot -14.8968 13.0755
ltoes -12.0135
1203
root -0.208745 18.1444 -1.88211 -0.12381 0.592907 0.502056
lowerback 4.44347 2.57768 1.18152
upperback -0.885027 3.48727 -0.54976
thorax -3.29518 1.70755 -1.47604
lowerneck 2.31224 -5.93082 -5.49906
upperneck -7.97248 -7.72329 7.0254
head -2.45676 -3.90983 3.4649
rclavicle -1.83764e-014 3.16347e-015
rhumerus -285.225 -27.2281 -415.049
rradius 25.452
rwrist 5.05569
rhand -23.0789 15.3608
rfingers 7.12502
rthumb 3.36693 -14.5923
lclavicle -1.83764e-014 3.16347e-015
lhumerus 68.3351 22.8352 49.724
lradius 40.1087
lwrist 6.50656
lhand -17.2158 34.0936
lfingers 7.12502
lthumb 9.02715 63.8804
rfemur -4.01419 5.03934 18.5371
rtibia 17.0124
rfoot -12.0684 -16.1418
rtoes -9.63554
lfemur -2.24822 -2.91653 -19.7536
ltibia 16.6206
lfoot -14.853 13.0795
ltoes -12.3199
1204
root -0.212082 18.1447 -1.88289 -0.15692 0.625611 0.399598
lowerback 4.48884 2.56238 1.30621
upperback -0.850167 3.47557 -0.508927
thorax -3.28027 1.70002 -1.50396
lowerneck 2.2309 -5.923 -5.61443
upperneck -7.82187 -7.71639 7.08448
head -2.38548 -3.90415 3.49594
rclavicle 1.45115e-014 -1.19892e-015
rhumerus -285.456 -27.3055 -414.965
rradius 25.5051
rwrist 5.03324
rhand -23.0689 15.492
rfingers 7.12502
rthumb 3.37654 -14.461
lclavicle 1.45115e-014 -1.19892e-015
lhumerus 68.0667 22.9506 49.772
lradius 40.0971
lwrist 6.38576
lhand -17.2391 33.9426
lfingers 7.12502
lthumb 9.00464 63.7304
rfemur -3.97368 4.97892 18.6626
rtibia 17.0006
rfoot -12.0721 -16.1154
rtoes -9.44057
lfemur -2.24041 -2.88905 -19.6276
ltibia 16.6663
lfoot -14.8792 13.0005
ltoes -12.3553
1205
root -0.214744 18.1448 -1.88386 -0.147516 0.650894 0.397686
lowerback 4.47836 2.54432 1.32074
upperback -0.815503 3.45272 -0.485084
thorax -3.23995 1.68925 -1.48433
lowerneck 2.15417 -5.89559 -5.73288
upperneck -7.67103 -7.68234 7.16101
head -2.31636 -3.88547 3.53376
rclavicle -6.52112e-015 2.43511e-015
rhumerus -285.637 -27.3661 -414.869
rradius 25.5259
rwrist 5.02143
rhand -23.059 15.3958
rfingers 7.12502
rthumb 3.38617 -14.5571
lclavicle -6.52112e-015 2.43511e-015
lhumerus 67.7255 23.0757 49.6897
lradius 40.1349
lwrist 6.45488
lhand -17.259 33.837
lfingers 7.12502
lthumb 8.98544 63.6257
rfemur -3.99014 5.00562 18.6725
rtibia 17.0198
rfoot -12.1346 -16.1418
rtoes -9.28516
lfemur -2.25335 -2.93583 -19.619
ltibia 16.6624
lfoot -14.8815 13.004
ltoes -12.2297
1206
root -0.216603 18.145 -1.88364 -0.115064 0.64899 0.46493
lowerback 4.43484 2.52807 1.26518
upperback -0.789309 3.42744 -0.477847
thorax -3.19292 1.67848 -1.44115
lowerneck 2.09872 -5.8689 -5.74571
upperneck -7.52536 -7.65155 7.13235
head -2.26037 -3.86846 3.51774
rclavicle -1.88291e-014 -4.22417e-016
rhumerus -285.907 -27.4011 -414.617
rradius 25.6038
rwrist 4.83991
rhand -23.045 15.4004
rfingers 7.12502
rthumb 3.39967 -14.5523
lclavicle -1.88291e-014 -4.22417e-016
lhumerus 67.3006 23.2098 49.502
lradius 40.2602
lwrist 6.60477
lhand -17.2447 33.9913
lfingers 7.12502
lthumb 8.99925 63.7794
rfemur -4.03861 4.98425 18.5986
rtibia 17.044
rfoot -12.1798 -16.1059
rtoes -9.21739
lfemur -2.27431 -2.99416 -19.6885
ltibia 16.6281
lfoot -14.8972 13.0359
ltoes -12.0269
1207
root -0.219192 18.1461 -1.88402 -0.0920449 0.629353 0.565637
lowerback 4.44038 2.53804 1.17186
upperback -0.800927 3.43497 -0.498734
thorax -3.21193 1.6835 -1.41181
lowerneck 2.16234 -5.85683 -5.66878
upperneck -7.43654 -7.64224 7.06149
head -2.24842 -3.86493 3.47913
rclavicle -1.20126e-014 -2.60905e-015
rhumerus -286.412 -27.4568 -414.108
rradius 25.7261
rwrist 4.51206
rhand -23.2072 15.3665
rfingers 7.12502
rthumb 3.24297 -14.5886
lclavicle -1.20126e-014 -2.60905e-015
lhumerus 66.841 23.2527 49.2711
lradius 40.4129
lwrist 6.7715
lhand -17.1307 34.0463
lfingers 7.12502
lthumb 9.10927 63.8296
rfemur -4.10209 4.99449 18.4927
rtibia 17.1086
rfoot -12.1473 -16.1547
rtoes -9.27123
lfemur -2.25336 -2.99926 -19.7882
ltibia 16.5394
lfoot -14.861 13.0569
ltoes -11.9771
1208
root -0.222452 18.1468 -1.88388 -0.0727856 0.597356 0.565093
lowerback 4.41734 2.56514 1.20916
upperback -0.786143 3.4724 -0.513902
thorax -3.17943 1.70177 -1.44898
lowerneck 2.28758 -5.87144 -5.54926
upperneck -7.46372 -7.66676 6.96781
head -2.28638 -3.87935 3.43273
rclavicle 2.36909e-014 5.2181e-016
rhumerus -286.713 -27.5938 -413.966
rradius 25.7737
rwrist 4.48387
rhand -23.1766 15.2577
rfingers 7.12502
rthumb 3.27252 -14.6969
lclavicle 2.36909e-014 5.2181e-016
lhumerus 66.4245 23.2591 49.0154
lradius 40.5916
lwrist 7.01904
lhand -17.1125 33.9644
lfingers 7.12502
lthumb 9.12682 63.7469
rfemur -4.16351 5.03089 18.5059
rtibia 17.1821
rfoot -12.1129 -16.1903
rtoes -9.50157
lfemur -2.21964 -2.93016 -19.7682
ltibia 16.4367
lfoot -14.7917 13.0478
ltoes -11.9784
1209
root -0.225223 18.1466 -1.88527 -0.0518488 0.590481 0.598962
lowerback 4.40568 2.58665 1.23437
upperback -0.766195 3.50089 -0.558283
thorax -3.14711 1.7156 -1.50919
lowerneck 2.42882 -5.88657 -5.40903
upperneck -7.53818 -7.68898 6.88656
head -2.34359 -3.89365 3.3896
rclavicle 5.59315e-015 -1.9133e-015
rhumerus -286.905 -27.7549 -414.01
rradius 25.7616
rwrist 4.56276
rhand -22.8713 15.2112
rfingers 7.12502
rthumb 3.56734 -14.7387
lclavicle 5.59315e-015 -1.9133e-015
lhumerus 66.1908 23.2704 49.0198
lradius 40.6486
lwrist 6.95287
lhand -17.0609 33.8993
lfingers 7.12502
lthumb 9.17661 63.6796
rfemur -4.2233 4.99862 18.4736
rtibia 17.2417
rfoot -12.1377 -16.1511
rtoes -9.51049
lfemur -2.20018 -2.90891 -19.792
ltibia 16.3609
lfoot -14.7411 13.0342
ltoes -11.8937
